<?xml version="1.0" standalone="no"?>
<!DOCTYPE svg PUBLIC "-//W3C//DTD SVG 20010904//EN"
 "http://www.w3.org/TR/2001/REC-SVG-20010904/DTD/svg10.dtd">
<svg version="1.0" xmlns="http://www.w3.org/2000/svg"
 width="100%" height="100%" viewBox="0 0 423 425"
 preserveAspectRatio="xMidYMid meet">

<g transform="translate(0.000000,425.000000) scale(0.100000,-0.100000)"
fill="currentColor" stroke="none">
<path fill-rule="evenodd" d="M1499 3643 c175 -36 333 -131 520 -312 47 -44 86 -81 89 -81 2 0 36 28
76 63 112 96 115 98 220 166 55 36 136 79 180 98 45 18 90 37 101 42 73 31
394 46 485 22 193 -51 300 -112 462 -261 245 -226 344 -458 343 -805 -1 -187
-14 -265 -75 -459 -86 -269 -254 -517 -496 -733 -45 -40 -84 -73 -88 -73 -14
0 -4 26 33 85 59 94 145 279 177 380 25 79 28 106 28 220 0 143 -12 202 -67
310 -90 181 -332 395 -494 437 -18 4 -50 12 -70 18 -46 12 -248 12 -318 1
l-50 -9 -80 82 c-44 45 -102 97 -128 115 -70 48 -200 106 -292 131 -101 28
-307 38 -409 21 -283 -48 -521 -209 -653 -440 -45 -79 -83 -179 -105 -276 -17
-80 -18 -400 0 -475 42 -176 65 -258 92 -325 5 -11 18 -46 31 -77 13 -33 29
-58 37 -58 8 0 31 14 52 30 77 61 189 98 335 109 81 7 100 13 193 59 120 60
188 76 293 70 59 -4 90 -11 134 -33 67 -34 98 -68 136 -150 29 -59 29 -61 22
-201 l-6 -141 44 -124 c40 -114 43 -132 44 -224 0 -85 -3 -106 -22 -142 -42
-79 -135 -127 -264 -138 -139 -13 -232 17 -407 131 -289 188 -579 439 -766
664 -39 47 -74 87 -78 88 -5 2 -8 8 -8 12 0 5 -22 38 -48 73 -209 276 -369
642 -423 967 -17 99 -17 337 0 425 41 220 157 421 307 535 79 60 206 124 296
149 40 12 89 26 108 32 102 29 374 31 509 2z m795 -1007 c58 -34 100 -85 120
-149 58 -178 6 -388 -129 -522 -119 -120 -263 -137 -368 -45 -69 61 -100 133
-105 246 -5 111 9 184 54 272 99 195 286 281 428 198z m-767 -179 c135 -85
172 -306 82 -488 -57 -115 -142 -179 -237 -179 -94 0 -158 44 -209 144 -24 46
-27 62 -27 161 0 143 23 215 98 302 32 36 79 66 136 87 33 12 119 -3 157 -27z
m1416 -343 c57 -19 128 -93 145 -152 56 -186 -104 -446 -330 -535 -84 -34
-200 -37 -264 -8 -91 41 -128 115 -123 243 5 118 53 213 156 315 63 62 103 89
103 68 0 -21 -74 -150 -152 -265 -32 -47 -58 -89 -58 -95 1 -35 69 -71 84 -46
8 13 160 101 175 101 7 0 2 -17 -14 -42 -44 -72 -85 -156 -85 -175 0 -16 47
-73 61 -73 3 0 37 25 75 55 64 52 142 95 256 144 50 21 71 58 51 90 -14 22
-45 17 -149 -24 -49 -19 -95 -35 -101 -35 -7 0 2 21 21 48 52 72 59 95 35 121
-20 22 -48 27 -64 13 -13 -11 -105 -45 -110 -40 -2 2 14 29 36 62 51 76 53
116 5 161 -34 32 -35 32 -13 44 73 39 187 50 260 25z m-14 -809 c96 -33 141
-94 141 -188 0 -42 -8 -70 -35 -123 -39 -77 -60 -103 -125 -155 -103 -83 -189
-113 -309 -108 -88 4 -111 16 -165 83 -28 34 -30 44 -30 109 0 60 5 82 31 132
55 106 163 196 289 240 80 28 144 31 203 10z
M1997 2563 c-3 -10 -5 -34 -6 -54 0 -20 -13 -74 -28 -120 -20 -61
-27 -105 -28 -162 0 -72 2 -80 25 -97 38 -29 67 -25 107 18 35 37 35 37 29 9
-15 -66 -27 -194 -21 -229 6 -33 11 -39 28 -36 18 2 29 25 65 123 49 137 98
245 147 321 41 64 50 95 36 122 -12 23 -59 42 -82 33 -9 -3 -55 -42 -103 -86
-118 -108 -120 -108 -86 -10 11 32 20 78 20 102 0 38 -4 46 -32 63 -41 25 -65
25 -71 3z
M1251 2336 c-51 -113 -59 -199 -30 -308 19 -73 94 -128 176 -128 89
0 141 62 167 199 22 115 -8 229 -69 261 -39 21 -50 3 -35 -59 22 -91 -10 -229
-64 -282 -41 -40 -63 -38 -72 7 -9 51 2 128 31 213 14 41 25 85 25 98 0 24
-28 48 -72 58 -26 7 -29 4 -57 -59z
M2840 1200 c-43 -27 -118 -53 -220 -79 -119 -30 -160 -56 -160 -102
0 -16 7 -19 48 -19 50 0 71 -15 130 -94 19 -25 20 -31 7 -55 -21 -42 -23 -82
-3 -94 27 -18 63 9 106 77 22 34 76 100 120 148 84 88 91 105 70 155 -26 61
-62 85 -98 63z m-100 -199 c-13 -26 -36 -27 -49 -3 -8 14 -4 19 22 28 36 12
44 5 27 -25z"/>
</g>
</svg>
